<?xml version="1.0" encoding="UTF-8"?>
<svg xmlns="http://www.w3.org/2000/svg" xmlns:xlink="http://www.w3.org/1999/xlink" width="149pt" height="63pt" viewBox="0 0 149 63" version="1.1">
<g id="surface1">
<path style="fill-rule:nonzero;fill:rgb(92.941176%,66.27451%,12.941176%);fill-opacity:1;stroke-width:38.0086;stroke-linecap:butt;stroke-linejoin:miter;stroke:rgb(0%,0%,0%);stroke-opacity:1;stroke-miterlimit:4;" d="M -84.159042 -15.861442 C -92.913695 -24.610718 -107.100068 -24.610718 -115.854722 -15.861442 C -124.609375 -7.09098 -124.609375 7.102761 -115.854722 15.852038 C -107.100068 24.601314 -92.913695 24.601314 -84.159042 15.852038 L 84.139052 15.852038 C 92.893705 24.601314 107.101379 24.601314 115.856032 15.852038 C 124.610686 7.102761 124.610686 -7.09098 115.856032 -15.861442 C 107.101379 -24.610718 92.893705 -24.610718 84.139052 -15.861442 Z M -84.159042 -15.861442 " transform="matrix(0.183385,0,0,0.18439,27.507692,34.112195)"/>
<path style="fill-rule:nonzero;fill:rgb(92.941176%,66.27451%,12.941176%);fill-opacity:1;stroke-width:38.0086;stroke-linecap:butt;stroke-linejoin:miter;stroke:rgb(0%,0%,0%);stroke-opacity:1;stroke-miterlimit:4;" d="M -84.143583 -15.853481 C -92.906788 -24.616686 -107.086444 -24.607955 -115.852518 -15.841882 C -124.60353 -7.09087 -124.612261 7.088787 -115.849056 15.851992 C -107.100831 24.600217 -92.906194 24.606466 -84.155182 15.855454 L 84.15284 15.860884 C 92.901065 24.60911 107.095702 24.615359 115.861775 15.849285 C 124.612787 7.098273 124.606538 -7.096364 115.858313 -15.844589 C 107.095108 -24.607793 92.900472 -24.614043 84.14946 -15.863031 Z M -84.143583 -15.853481 " transform="matrix(0.129673,0.130384,-0.129673,0.130384,27.507692,34.112195)"/>
<path style="fill-rule:nonzero;fill:rgb(92.941176%,66.27451%,12.941176%);fill-opacity:1;stroke-width:38.0086;stroke-linecap:butt;stroke-linejoin:miter;stroke:rgb(0%,0%,0%);stroke-opacity:1;stroke-miterlimit:4;" d="M -84.139695 -15.848495 C -92.910156 -24.603149 -107.103898 -24.603149 -115.853175 -15.848495 C -124.602451 -7.093842 -124.602451 7.092531 -115.853175 15.847184 C -107.103898 24.601838 -92.910156 24.601838 -84.139695 15.847184 L 84.151476 15.847184 C 92.900752 24.601838 107.094494 24.601838 115.843771 15.847184 C 124.614232 7.092531 124.614232 -7.093842 115.843771 -15.848495 C 107.094494 -24.603149 92.900752 -24.603149 84.151476 -15.848495 Z M -84.139695 -15.848495 " transform="matrix(0.000000000000000011,0.18439,-0.183385,0.000000000000000011,27.507692,34.112195)"/>
<path style="fill-rule:nonzero;fill:rgb(92.941176%,66.27451%,12.941176%);fill-opacity:1;stroke-width:38.0086;stroke-linecap:butt;stroke-linejoin:miter;stroke:rgb(0%,0%,0%);stroke-opacity:1;stroke-miterlimit:4;" d="M -84.156109 -15.856381 C -92.907121 -24.607393 -107.101758 -24.601144 -115.849983 -15.852919 C -124.613188 -7.089714 -124.604457 7.089943 -115.853445 15.840955 C -107.087371 24.607028 -92.907715 24.615759 -84.14451 15.852554 L 84.148533 15.862104 C 92.899545 24.613116 107.094181 24.606867 115.857386 15.843662 C 124.605611 7.095437 124.61186 -7.0992 115.860849 -15.850212 C 107.094775 -24.616286 92.900138 -24.610036 84.151913 -15.861811 Z M -84.156109 -15.856381 " transform="matrix(-0.129673,0.130384,-0.129673,-0.130384,27.507692,34.112195)"/>
<path style=" stroke:none;fill-rule:nonzero;fill:rgb(92.941176%,66.27451%,12.941176%);fill-opacity:1;" d="M 12.074219 31.1875 C 10.46875 29.574219 7.867188 29.574219 6.261719 31.1875 C 4.65625 32.804688 4.65625 35.421875 6.261719 37.035156 C 7.867188 38.648438 10.46875 38.648438 12.074219 37.035156 L 42.9375 37.035156 C 44.542969 38.648438 47.148438 38.648438 48.753906 37.035156 C 50.359375 35.421875 50.359375 32.804688 48.753906 31.1875 C 47.148438 29.574219 44.542969 29.574219 42.9375 31.1875 Z M 12.074219 31.1875 "/>
<path style=" stroke:none;fill-rule:nonzero;fill:rgb(92.941176%,66.27451%,12.941176%);fill-opacity:1;" d="M 18.652344 21.074219 C 18.652344 18.789062 16.8125 16.941406 14.539062 16.941406 C 12.269531 16.941406 10.429688 18.789062 10.429688 21.074219 C 10.429688 23.355469 12.269531 25.207031 14.539062 25.207031 L 36.363281 47.152344 C 36.363281 49.433594 38.203125 51.285156 40.476562 51.285156 C 42.746094 51.285156 44.585938 49.433594 44.585938 47.152344 C 44.585938 44.867188 42.746094 43.015625 40.476562 43.015625 Z M 18.652344 21.074219 "/>
<path style=" stroke:none;fill-rule:nonzero;fill:rgb(92.941176%,66.27451%,12.941176%);fill-opacity:1;" d="M 30.414062 18.597656 C 32.019531 16.980469 32.019531 14.363281 30.414062 12.75 C 28.808594 11.136719 26.207031 11.136719 24.601562 12.75 C 22.996094 14.363281 22.996094 16.980469 24.601562 18.597656 L 24.601562 49.628906 C 22.996094 51.242188 22.996094 53.859375 24.601562 55.472656 C 26.207031 57.089844 28.808594 57.089844 30.414062 55.472656 C 32.019531 53.859375 32.019531 51.242188 30.414062 49.628906 Z M 30.414062 18.597656 "/>
<path style=" stroke:none;fill-rule:nonzero;fill:rgb(92.941176%,66.27451%,12.941176%);fill-opacity:1;" d="M 40.476562 25.207031 C 42.746094 25.207031 44.585938 23.355469 44.585938 21.074219 C 44.585938 18.789062 42.746094 16.941406 40.476562 16.941406 C 38.203125 16.941406 36.363281 18.789062 36.363281 21.074219 L 14.539062 43.015625 C 12.269531 43.015625 10.429688 44.867188 10.429688 47.152344 C 10.429688 49.433594 12.269531 51.285156 14.539062 51.285156 C 16.8125 51.285156 18.652344 49.433594 18.652344 47.152344 Z M 40.476562 25.207031 "/>
<path style=" stroke:none;fill-rule:nonzero;fill:rgb(0%,35.294118%,61.176471%);fill-opacity:1;" d="M 58.164062 34.285156 C 55.425781 31.53125 53.730469 27.730469 53.730469 23.53125 C 53.730469 15.128906 60.507812 8.316406 68.859375 8.316406 C 77.214844 8.316406 83.992188 15.128906 83.992188 23.53125 L 75.128906 23.53125 C 75.128906 20.050781 72.320312 17.230469 68.859375 17.230469 C 65.398438 17.230469 62.59375 20.050781 62.59375 23.53125 C 62.59375 25.269531 63.296875 26.84375 64.425781 27.980469 L 64.429688 27.980469 C 65.566406 29.125 66.507812 29.457031 68.859375 29.832031 C 73.039062 30.269531 76.820312 31.535156 79.558594 34.289062 C 82.296875 37.042969 83.992188 40.84375 83.992188 45.042969 C 83.992188 53.445312 77.214844 60.261719 68.859375 60.261719 C 60.507812 60.261719 53.730469 53.445312 53.730469 45.042969 L 62.59375 45.042969 C 62.59375 48.523438 65.398438 51.347656 68.859375 51.347656 C 72.320312 51.347656 75.128906 48.523438 75.128906 45.042969 C 75.128906 43.304688 74.429688 41.734375 73.296875 40.59375 L 73.292969 40.59375 C 72.160156 39.453125 70.53125 39.058594 68.859375 38.746094 L 68.859375 38.742188 C 64.808594 38.117188 60.902344 37.039062 58.164062 34.285156 Z M 58.164062 34.285156 "/>
<path style=" stroke:none;fill-rule:nonzero;fill:rgb(0%,35.294118%,61.176471%);fill-opacity:1;" d="M 114.253906 8.316406 L 103.550781 60.261719 L 94.6875 60.261719 L 83.992188 8.316406 L 92.855469 8.316406 L 99.128906 38.738281 L 105.390625 8.316406 Z M 114.253906 8.316406 "/>
<path style=" stroke:none;fill-rule:nonzero;fill:rgb(0%,35.294118%,61.176471%);fill-opacity:1;" d="M 129.390625 29.832031 L 144.519531 29.832031 L 144.519531 45.042969 L 144.523438 45.042969 C 144.523438 53.445312 137.746094 60.261719 129.390625 60.261719 C 121.03125 60.261719 114.261719 53.445312 114.261719 45.042969 L 114.261719 23.53125 L 114.253906 23.53125 C 114.253906 15.128906 121.03125 8.316406 129.390625 8.316406 C 137.742188 8.316406 144.519531 15.128906 144.519531 23.53125 L 135.65625 23.53125 C 135.65625 20.054688 132.847656 17.230469 129.390625 17.230469 C 125.929688 17.230469 123.121094 20.054688 123.121094 23.53125 L 123.121094 45.042969 C 123.121094 48.523438 125.929688 51.34375 129.390625 51.34375 C 132.847656 51.34375 135.652344 48.523438 135.65625 45.046875 L 135.65625 38.746094 L 129.390625 38.746094 Z M 129.390625 29.832031 "/>
</g>
</svg>
