<?xml version="1.0" ?><svg viewBox="0 0 64 64" xmlns="http://www.w3.org/2000/svg"><defs><style>.cls-1{fill:#80ee98;}.cls-2{fill:#fcbf4a;}.cls-3{fill:#94a1b2;}.cls-4{fill:#bec7d6;}.cls-5{fill:#f8e157;}.cls-6,.cls-8{fill:#5e697b;}.cls-7{fill:#f64f7d;}.cls-7,.cls-8{fill-rule:evenodd;}</style></defs><g id="Investation"><path class="cls-1" d="M19.3,28.26a1,1,0,0,1,1.05-1.05H26a4.52,4.52,0,0,1,4.53,4.52v2.84H23.83A4.53,4.53,0,0,1,19.3,30Z"/><path class="cls-1" d="M45.14,30.51a1.06,1.06,0,0,0-1.06-1.05H38.19a4.71,4.71,0,0,0-4.71,4.71v2.95h6.94a4.71,4.71,0,0,0,4.72-4.71Z"/><rect class="cls-2" height="16.66" width="3.73" x="30.13" y="23.41"/><path class="cls-3" d="M20.07,40.07H43.92a2.57,2.57,0,1,1,0,5.13H20.07a2.57,2.57,0,0,1,0-5.13Z"/><path class="cls-4" d="M20.16,45.2H43.84s-1.16,9.36-1.63,13.19A1.83,1.83,0,0,1,40.4,60H23.6a1.83,1.83,0,0,1-1.81-1.61C21.31,54.56,20.16,45.2,20.16,45.2Z"/><circle class="cls-5" cx="32.1" cy="13.81" r="9.81"/><path class="cls-2" d="M38.5,13.81a6.4,6.4,0,1,1-6.4-6.4A6.4,6.4,0,0,1,38.5,13.81Z"/><path class="cls-3" d="M39.79,45.2,38,60H40.4a1.83,1.83,0,0,0,1.81-1.61c.48-3.83,1.63-13.19,1.63-13.19Z"/><path class="cls-6" d="M34.89,40.07a2.57,2.57,0,1,1,0,5.13h9a2.57,2.57,0,1,0,0-5.13Z"/><path class="cls-7" d="M31.1,10.53v-.06a1,1,0,1,1,2,0v.06a2.31,2.31,0,0,1,.6.42,1,1,0,0,1,0,1.42,1,1,0,0,1-1.41,0,.25.25,0,0,0-.18-.08h0a.27.27,0,0,0-.26.26.26.26,0,0,0,.26.26,2.26,2.26,0,0,1,1,4.28v.05a1,1,0,0,1-2,0v-.05a2.26,2.26,0,0,1-.59-.42,1,1,0,0,1,0-1.42,1,1,0,0,1,1.41,0,.27.27,0,0,0,.14.07h.08a.25.25,0,0,0,.22-.25.26.26,0,0,0-.26-.26,2.26,2.26,0,0,1-1-4.28Z"/><path class="cls-8" d="M24.51,50.08h.78a1,1,0,1,0,0-2h-.78a1,1,0,0,0,0,2Z"/><path class="cls-8" d="M29.24,50.08H30a1,1,0,0,0,0-2h-.78a1,1,0,1,0,0,2Z"/><path class="cls-8" d="M34,50.08h.78a1,1,0,1,0,0-2H34a1,1,0,0,0,0,2Z"/><path class="cls-8" d="M38.71,50.08h.78a1,1,0,0,0,0-2h-.78a1,1,0,1,0,0,2Z"/></g></svg>