<?xml version="1.0" ?><svg viewBox="0 0 64 64" xmlns="http://www.w3.org/2000/svg"><defs><style>.cls-1{fill:#94a1b2;}.cls-11,.cls-2{fill:#555f6f;}.cls-3,.cls-4{fill:#e0e5eb;}.cls-10,.cls-11,.cls-4,.cls-6,.cls-7{fill-rule:evenodd;}.cls-5,.cls-7{fill:#bec7d6;}.cls-6{fill:#5e697b;}.cls-10,.cls-8{fill:#f64f7d;}.cls-9{fill:#4f9ff6;}</style></defs><g id="Data"><path class="cls-1" d="M52.65,13.25a2.19,2.19,0,0,0-2.18-2.18H12.85a1.5,1.5,0,0,0-1.5,1.5V58.5a1.5,1.5,0,0,0,1.5,1.5h38.3a1.5,1.5,0,0,0,1.5-1.5Z"/><path class="cls-2" d="M43.34,11.07V60h7.81a1.5,1.5,0,0,0,1.5-1.5V13.25a2.19,2.19,0,0,0-2.18-2.18Z"/><path class="cls-3" d="M47.7,11.07H16.3V53.8a.71.71,0,0,0,.71.72H47a.71.71,0,0,0,.71-.72Z"/><path class="cls-1" d="M42.13,8H21.87A1.4,1.4,0,0,0,20.46,9.4v5.17A1.42,1.42,0,0,0,21.87,16H42.13a1.42,1.42,0,0,0,1.41-1.42V9.4A1.4,1.4,0,0,0,42.13,8Z"/><path class="cls-4" d="M39.44,5.41A1.4,1.4,0,0,0,38,4H26a1.42,1.42,0,0,0-1.41,1.41V8.76A1.42,1.42,0,0,0,26,10.17H38a1.4,1.4,0,0,0,1.41-1.41Z"/><path class="cls-5" d="M47.7,11.07H43.34V54.52H47a.71.71,0,0,0,.71-.72Z"/><path class="cls-6" d="M43.54,9.4A1.4,1.4,0,0,0,42.13,8H35.56v8h6.57a1.42,1.42,0,0,0,1.41-1.42Z"/><path class="cls-7" d="M39.44,5.41A1.4,1.4,0,0,0,38,4H35.56v6.17H38a1.4,1.4,0,0,0,1.41-1.41Z"/><rect class="cls-8" height="4.94" rx="1.14" width="4.25" x="25.39" y="46.14"/><rect class="cls-9" height="7.07" rx="1.14" width="4.25" x="32.86" y="44.02"/><path class="cls-10" d="M44.59,43a1.16,1.16,0,0,0-1.14-1.14h-2A1.14,1.14,0,0,0,40.34,43v7a1.14,1.14,0,0,0,1.14,1.14h2A1.16,1.16,0,0,0,44.59,50Z"/><path class="cls-11" d="M21.36,22.57h10a1,1,0,0,0,0-2h-10a1,1,0,0,0,0,2Z"/><path class="cls-11" d="M35.76,22.57h6.88a1,1,0,0,0,0-2H35.76a1,1,0,0,0,0,2Z"/><path class="cls-11" d="M21.36,26.44H25.5a1,1,0,0,0,0-2H21.36a1,1,0,0,0,0,2Z"/><path class="cls-11" d="M29.87,26.44H42.64a1,1,0,0,0,0-2H29.87a1,1,0,0,0,0,2Z"/><path class="cls-11" d="M21.36,30.3h10a1,1,0,0,0,0-2h-10a1,1,0,0,0,0,2Z"/><path class="cls-11" d="M35.76,30.3h6.88a1,1,0,0,0,0-2H35.76a1,1,0,0,0,0,2Z"/><path class="cls-11" d="M21.36,34.17H25.5a1,1,0,0,0,0-2H21.36a1,1,0,0,0,0,2Z"/><path class="cls-11" d="M29.87,34.17H42.64a1,1,0,0,0,0-2H29.87a1,1,0,0,0,0,2Z"/><path class="cls-11" d="M21.36,38h10a1,1,0,0,0,0-2h-10a1,1,0,0,0,0,2Z"/><path class="cls-11" d="M35.76,38h6.88a1,1,0,0,0,0-2H35.76a1,1,0,1,0,0,2Z"/></g></svg>